<?xml version="1.0" encoding="utf-8"?>
<svg height="482" version="1.2" viewBox="83.32500000000005 83.3632 749 481" width="750" xmlns="http://www.w3.org/2000/svg">
<style>
		.s0 { fill: #0B0F17 } 
		.s1 { fill: #F3F6FA } 
	</style>
<g id="Layer 1">
<path class="s0" d="m275.73 102.32q0 0.04 0.03 0.08 0.02 0.04 0.06 0.06 0.03 0.03 0.08 0.04 0.04 0.01 0.08 0 12.93-2.26 25.27-3.73c27.65-3.3 54.81-5.61 81.95-6.73 11.9-0.5 21.23-0.94 31.9-1.07 8.15-0.11 16.63-0.46 24.71-0.53q46.4-0.36 92.59 2.03 37.21 1.92 72.6 6.33 16.26 2.02 26.33 3.76 0.08 0.02 0.16 0 0.07-0.02 0.13-0.06 0.07-0.05 0.11-0.11 0.04-0.07 0.06-0.14 1.2-6.67 2.38-11.08c1.03-3.84 10.78-5.68 14.1-6.13q11.98-1.59 25.84-0.03 21.38 2.4 42.86 11.88 7.81 3.45 15.67 9.17c0.83 0.6 1.62 1.51 1.87 2.7 0.75 3.73 0.89 8.74 1.03 11.15q0.01 0.04 0.02 0.07 0.01 0.04 0.04 0.07 0.02 0.03 0.06 0.05 0.03 0.02 0.07 0.03l11.66 2.66q0.12 0.03 0.24 0.08 0.12 0.05 0.24 0.11 0.11 0.07 0.21 0.15 0.1 0.08 0.18 0.18 0.38 0.42 1.01 1.58 16.71 31.22 30.17 63.7 23.12 55.83 37.52 114.18 6.32 25.58 10.04 49.44 2.82 18.1 4.43 38.73 1.45 18.76 1.18 40.84-0.27 21.23-3.78 45.32c-2.47 17.02-6.79 34.15-14.09 49.65-4.91 10.41-12.49 20.09-21.08 27.21-12.37 10.26-28.37 13.3-44.08 9.66-14-3.25-25.49-11.46-34.4-22.92q-8.32-10.71-14.12-23.37-5.9-12.89-9.15-19.91c-7.79-16.86-13.55-31.12-20.65-49.09q-4.24-10.71-9.46-20.08-2.44-4.37-6.11-8.62-4.26-4.94-9.47-6.75-3.46-1.19-10.59-1.8-15.7-1.35-32.77-0.61-0.08 0.01-0.16 0.04-0.08 0.03-0.15 0.09-0.06 0.05-0.11 0.12-0.04 0.08-0.06 0.16c-0.26 1.03-0.48 3.47-1.34 4.58-2.28 2.92-8.39 3.64-11.67 3.96q-12.95 1.26-25.06-0.21-3.59-0.44-6.52-1.48c-3.66-1.31-3.89-3.51-4.57-6.8q-0.02-0.07-0.06-0.13-0.04-0.07-0.09-0.11-0.06-0.05-0.13-0.08-0.07-0.02-0.15-0.02h-195.36q-0.1 0-0.2 0.03-0.1 0.04-0.18 0.11-0.07 0.06-0.13 0.15-0.05 0.09-0.07 0.2-0.24 1.43-0.52 2.73c-0.52 2.39-2.67 3.55-4.89 4.19q-3.8 1.08-7.65 1.45-7.53 0.73-16.46 0.49-8.01-0.21-14.71-2.07c-3.89-1.08-4.17-3.55-5.01-6.95q-0.03-0.09-0.08-0.18-0.05-0.08-0.13-0.14-0.07-0.06-0.16-0.09-0.1-0.04-0.19-0.04c-12.43-0.24-25.7-0.36-37.68 1.64-6.41 1.07-12.09 5.56-15.47 10.85q-5.3 8.31-9.28 18.25c-6.47 16.17-11.88 31.54-17.78 45.97q-7.63 18.62-13.27 31.71-2.5 5.78-7.54 14.16c-6.02 10-14.25 18.48-23.9 24.43-10.43 6.44-23.14 9-35.18 6.93q-16.55-2.83-29.12-16.19-8.17-8.67-13.01-18.08-6.04-11.79-8.8-20.65-3.25-10.47-5.87-21.81-2.46-10.62-3.8-22.26-2.84-24.6-2.62-49.86 0.4-44.81 9.15-89.4 2.35-11.99 4.1-19.73 14.3-63.28 39-125.32 11.74-29.5 25.55-57.16c0.58-1.15 1.79-1.38 3.02-1.68q5.56-1.35 9.41-2.05 0.07-0.02 0.13-0.05 0.06-0.04 0.11-0.09 0.04-0.05 0.07-0.12 0.02-0.07 0.03-0.14 0.29-7.3 0.87-11.08 0.24-1.58 1.82-2.8 4.28-3.3 6.53-4.61c8.23-4.79 16.86-8.13 26.05-10.98q20.26-6.27 40.79-6.03 9.77 0.11 17.82 2.85c2.86 0.96 4.78 2.18 5.57 5.17q0.96 3.65 1.98 9.98z" style="fill:#0B0F17"/>
<path class="s1" d="m729.85 106.37q0.04 0.03 0.05 0.07 0.01 0.04-0.01 0.08-0.01 0.04-0.05 0.07-0.04 0.02-0.09 0.01-11.47-2.48-22.9-4.72c-10.74-2.1-20.36-3.63-36.52-6.42q-18.23-3.16-32.64-5.02-0.08-0.01-0.13-0.07-0.06-0.05-0.08-0.13-0.01-0.08 0.03-0.16 0.04-0.07 0.11-0.1 5.45-2.47 11.62-3.11 8.49-0.88 17.21-0.54 7.93 0.31 17.07 2.11 16.25 3.19 30.78 9.42 8.48 3.64 15.55 8.51z" style="fill:#20252D"/>
<path class="s1" d="m179.85 106.53q-0.08 0.01-0.14-0.02-0.07-0.04-0.1-0.1-0.03-0.07-0.01-0.15 0.03-0.07 0.09-0.11 7.94-5.36 16.94-9.07 14.02-5.76 29.24-8.71 5.81-1.13 10.61-1.53c9-0.76 18.17-0.92 26.38 0.88q3.61 0.8 6.75 2.31 0.05 0.02 0.08 0.07 0.02 0.05 0.01 0.11 0 0.05-0.04 0.09-0.04 0.04-0.1 0.05c-28.57 4.19-57.58 9.78-89.71 16.18z" style="fill:#20252D"/>
<path class="s1" d="m176.33 120.17q-0.06 0.02-0.12 0-0.06-0.02-0.11-0.06-0.04-0.04-0.07-0.1-0.02-0.05-0.01-0.12l0.92-10.78q0.01-0.16 0.07-0.3 0.07-0.14 0.17-0.26 0.1-0.12 0.24-0.19 0.13-0.08 0.29-0.11c23.53-4.75 46.72-9.35 70.21-13.24q9.69-1.61 23.12-3.83 0.1-0.02 0.2 0.01 0.1 0.02 0.18 0.08 0.09 0.06 0.14 0.14 0.06 0.09 0.07 0.19l2.04 11.19q0.01 0.08 0 0.16-0.02 0.07-0.07 0.13-0.04 0.06-0.11 0.1-0.06 0.04-0.14 0.05-49.29 6.55-97.02 16.94z" style="fill:#141A22"/>
<path class="s1" d="m733.29 120.03q-30.31-6.13-39.04-7.6-31.73-5.34-60.24-9.26-0.07-0.01-0.13-0.05-0.06-0.04-0.1-0.1-0.04-0.05-0.06-0.13-0.01-0.07 0-0.14l2.23-11q0.03-0.13 0.1-0.23 0.07-0.11 0.17-0.17 0.11-0.07 0.23-0.09 0.12-0.02 0.25 0 2.02 0.48 2.81 0.59c14.98 2.16 28.81 4.41 50.06 8.06 14.09 2.42 30.68 5.93 42.56 8.44q0.11 0.02 0.2 0.07 0.09 0.06 0.17 0.14 0.07 0.08 0.11 0.18 0.04 0.1 0.05 0.21l1.01 10.73q0.01 0.08-0.02 0.15-0.02 0.07-0.08 0.12-0.06 0.05-0.13 0.07-0.08 0.02-0.15 0.01z" style="fill:#141A22"/>
<path class="s1" d="m600.64 107.09q-0.01 0.06-0.05 0.11-0.04 0.04-0.1 0.06-0.06 0.02-0.12 0.01-0.06-0.01-0.11-0.05-3.11-2.84-7.48-3.6-14.97-2.63-31.99-3.78-25.5-1.73-48.32-2.25-56.52-1.28-113.2-0.11c-26.59 0.55-48.72 1.35-73.17 4.49q-9.34 1.2-14.51 2.5-3.01 0.76-5.27 2.67-0.04 0.04-0.1 0.05-0.06 0.01-0.11-0.01-0.05-0.02-0.09-0.06-0.04-0.04-0.05-0.1l-1.21-6.66q-0.01-0.07 0.01-0.13 0.01-0.07 0.05-0.13 0.04-0.05 0.1-0.09 0.06-0.03 0.13-0.04 53.14-5.86 106.43-7.2c4.93-0.12 11.83-0.11 18.35-0.33q2.89-0.1 7.32-0.14 27.54-0.26 54.72 0.42 23.7 0.59 40.83 1.68c20.99 1.33 46.31 3.01 69.05 5.67q0.06 0.01 0.11 0.04 0.05 0.03 0.09 0.08 0.03 0.05 0.04 0.11 0.02 0.06 0 0.12z" style="fill:#0A3FB8"/>
<path class="s1" d="m305.91 114.75c-1.56-7.55 4.35-8.97 10.22-10.06q9.97-1.85 23.79-3.13 15.39-1.43 26.78-1.9c25.52-1.05 43.57-1.39 70.35-1.74q14.2-0.18 28.77-0.02 4.55 0.05 28.75 0.41 32.75 0.48 62.97 2.43 15.53 1.01 30.79 3.32 2.87 0.44 6.4 1.38c6.19 1.65 6.68 5.49 5.52 10.98q-2.79 13.15-6.85 33.48-1.09 5.42-13.32 64.7-1.34 6.52-2.68 9.23c-5.32 10.88-16.2 16.94-28.34 16.93q-59.52-0.04-192.13-0.02-4.07 0-9.61-1.79c-7.49-2.42-13.25-7.57-16.84-14.45q-1.74-3.32-3.04-9.92-0.96-4.87-4.97-22.54-1.28-5.6-5.93-27.6c-3.42-16.15-6.99-32.1-10.63-49.69z" style="fill:#242B36;stroke:#070A0F;stroke-width:1.2"/>
<path class="s1" d="m302.72 100.65q0.03-0.01 0.06 0 0.04 0.01 0.07 0.02 0.03 0.02 0.05 0.05 0.02 0.02 0.03 0.06 0.84 2.55 1.56 5.45c0.98 3.96-2.61 7.26-6.44 6.44q-3.44-0.73-4.59-4.68-1.03-3.52-1.76-5.52-0.03-0.08-0.02-0.16 0-0.09 0.05-0.16 0.04-0.07 0.11-0.11 0.07-0.05 0.15-0.06z" style="fill:#0A3FB8"/>
<path class="s1" d="m603.95 100.69l10.63 1.28q0.09 0.01 0.16 0.06 0.07 0.04 0.11 0.11 0.04 0.07 0.05 0.16 0.01 0.08-0.02 0.16-0.72 1.98-1.72 5.47-1.12 3.92-4.54 4.66c-3.79 0.83-7.36-2.43-6.4-6.36q0.69-2.87 1.52-5.4 0.01-0.04 0.03-0.06 0.03-0.03 0.05-0.05 0.03-0.02 0.07-0.02 0.03-0.01 0.06-0.01z" style="fill:#0A3FB8"/>
<path class="s1" d="m290.16 102.12q0.03 0.01 0.09 0.06 0.04 0.04 0.05 0.07 2.45 7.33 3.1 8.99 0.01 0.02 0.01 0.04-0.01 0.02-0.02 0.03-0.02 0.02-0.04 0.02-0.02 0-0.04-0.01-2.27-1.56-6.3-4-4.03-2.43-6.46-3.73-0.02-0.01-0.03-0.03 0-0.02 0-0.04 0-0.02 0.02-0.03 0.01-0.01 0.03-0.02 1.78-0.19 9.41-1.41 0.04-0.01 0.09 0.01 0.07 0.03 0.09 0.05z" style="fill:#0A3FB8"/>
<path class="s1" d="m626.33 103.47q0.04 0.01 0.07 0.04 0.04 0.03 0.04 0.07 0.01 0.05-0.01 0.08-0.02 0.04-0.06 0.06-6.64 3.4-8.81 4.59-2.33 1.27-4.28 3.14-0.03 0.03-0.07 0.03-0.04 0-0.07-0.02-0.03-0.02-0.04-0.06-0.01-0.04 0.01-0.07 1.83-3.77 2.84-8.75 0.02-0.13 0.09-0.23 0.07-0.11 0.18-0.18 0.1-0.08 0.23-0.11 0.12-0.03 0.25-0.01z" style="fill:#0A3FB8"/>
<path class="s1" d="m157.65 562.76q-0.01 0.08-0.05 0.14-0.04 0.07-0.1 0.13-0.05 0.05-0.13 0.07-0.07 0.03-0.15 0.03c-16.92 0.19-31.07-7.15-41.45-20.27q-9.89-12.51-15.38-27.45-6.54-17.82-9.89-36.79-3.19-18.06-4.24-38.62-1.31-25.49 0.64-52.43 2.5-34.71 9.26-67.21 2.56-12.34 8.39-36.37 1.04-4.33 2.76-10.11c1.12-3.8 2.18-8.23 3.7-13.48q9.65-33.2 21.89-65.71 1.04-2.76 7.99-20.04c3.31-8.23 6.03-14.19 9.68-22.6q2.16-4.98 4.09-8.94 2.05-4.23 8.45-17.87 0.05-0.1 0.12-0.2 0.07-0.09 0.16-0.17 0.09-0.08 0.2-0.13 0.1-0.06 0.22-0.09c11.09-3.08 23.39-5.67 33.91-7.76q40.81-8.08 80.2-13.02 0.07-0.01 0.15-0.01 0.07 0 0.14 0.01 0.07 0.01 0.14 0.04 0.07 0.02 0.14 0.06 3.55 1.84 11.42 6.52 4.68 2.79 6.19 7.64 0.93 3.02 2.65 9.39 2.5 9.28 7.85 31.14 4.34 17.68 7.53 34.84 1.62 8.67 1.94 16.48 0.87 21.2-10.42 38.92c-4.02 6.3-9.5 11.44-14.31 17.28q-13.52 16.42-20.15 25.76-8.3 11.7-12.09 17.21-10.6 15.39-21.38 33.8-18.74 31.98-33.38 65.54c-16.57 37.97-29.92 76.99-39.49 117.56q-4.58 19.39-6.75 33.53-0.13 0.82-0.45 3.18z" style="fill:#F3F6FA"/>
<path class="s1" d="m758.65 563.03q-0.09-0.01-0.17-0.04-0.08-0.04-0.15-0.1-0.07-0.06-0.11-0.14-0.04-0.08-0.06-0.17c-2.3-14.51-5.71-28.37-9.73-43.34q-3.24-12.08-6.88-23.49-13.8-43.21-32.82-84.73-19.69-42.96-45.56-83.36c-3.15-4.92-6.38-9.41-9.83-14.61q-1.07-1.61-4.04-5.76-15.81-22.06-33.3-42.25-2.18-2.51-6-6.53c-5.32-5.61-9.94-12.29-13.11-19.39q-2.73-6.11-4.18-14.01c-2.29-12.51-1.1-24.33 1.26-36.86q6.03-32 15.72-67.83 2.06-7.58 9.13-11.31 7.9-4.17 9.85-5.08 0.07-0.04 0.14-0.06 0.07-0.02 0.15-0.03 0.07-0.01 0.15-0.02 0.07 0 0.15 0.01 49.31 5.96 97.88 16.13c6.27 1.3 12.85 3.05 19.35 4.61q0.08 0.02 0.16 0.06 0.07 0.04 0.14 0.09 0.07 0.05 0.12 0.11 0.05 0.07 0.09 0.14 23.97 45.1 41.41 92.32 9.74 26.35 18.27 55.28c2.88 9.75 5.41 20.06 7.66 28.57q5.13 19.41 9.44 44.64 5.86 34.33 6.67 68.19 0.52 22.25-1.56 45.52-1.79 19.99-6.36 38.59c-4.12 16.79-9.97 32.04-20.94 45.1-5.01 5.98-10.99 11.5-17.66 14.8q-11.85 5.85-25.28 4.95z" style="fill:#F3F6FA"/>
<path class="s1" d="m602.86 252.72q0.01 0.02 0.01 0.05-0.01 0.02-0.03 0.04-0.02 0.02-0.05 0.01-0.02 0-0.05-0.01-7.26-6.39-12.18-14.78c-5.63-9.6-6.94-21.56-6.08-33.43q0.01-0.09 0.01-0.19 0-0.1-0.02-0.2-0.01-0.1-0.03-0.2-0.02-0.1-0.06-0.19l-0.27-0.79q-0.03-0.09-0.05-0.18-0.02-0.09-0.03-0.19-0.01-0.1 0-0.19 0.01-0.1 0.03-0.19l18.3-90.27q0-0.03 0.02-0.05 0.01-0.01 0.04-0.02 0.02-0.01 0.04 0 0.02 0 0.04 0.02 3.07 2.92 8.47 1.55 0.05-0.01 0.1 0 0.05 0.02 0.08 0.06 0.03 0.04 0.04 0.09 0 0.05-0.02 0.09c-0.3 0.61-0.86 1.26-1.11 1.96q-1.89 5.37-2.69 8.43c-6.18 23.65-11.74 46.98-15.72 69.78q-3.02 17.35 0.13 33.32 1.54 7.82 5.62 16.34 1 2.09 2.65 4.61 1.23 1.87 2.81 4.53z" style="fill:#0A3FB8"/>
<path class="s1" d="m295.9 113.55q0.09 0.01 2.55 0.37 2.86 0.42 5.31-1.42 0.04-0.02 0.09-0.03 0.05-0.01 0.09 0.01 0.05 0.02 0.08 0.05 0.03 0.04 0.04 0.09 3.74 17.26 14.42 66.86 1.86 8.6 3.99 18.86 0.7 3.37 0.74 6.69c0.1 7.17 0.14 12.87-1.19 19.51q-2.64 13.24-12 22.96-2.62 2.73-4.78 5.18-0.02 0.02-0.05 0.03-0.03 0-0.05-0.02-0.02-0.01-0.03-0.04 0-0.03 0.01-0.05 3.39-6.1 3.4-6.12 10.37-18.39 8.67-39.32c-0.72-8.75-2.27-16.89-4.15-25.66q-6.53-30.38-14.84-60.7-1.39-5.06-2.49-6.94-0.03-0.05-0.03-0.11 0-0.06 0.03-0.1 0.03-0.05 0.08-0.08 0.05-0.02 0.11-0.02z" style="fill:#0A3FB8"/>
<path class="s0" d="m634.37 151.1q-0.4 1.53-1.35 2.8-0.96 1.26-2.33 2.06-1.37 0.8-2.94 1.02-1.57 0.22-3.1-0.18l-1.8-0.47q-1.53-0.4-2.8-1.35-1.26-0.96-2.06-2.33-0.8-1.37-1.03-2.94-0.21-1.57 0.19-3.1l4.84-18.59q0.4-1.53 1.35-2.8 0.96-1.26 2.33-2.06 1.37-0.8 2.94-1.03 1.57-0.21 3.1 0.19l1.8 0.46q1.53 0.41 2.8 1.36 1.26 0.96 2.07 2.33 0.8 1.36 1.02 2.93 0.21 1.58-0.18 3.11z" style="fill:#070A0F"/>
<path class="s0" d="m290.94 146.29q0.41 1.58 0.2 3.2-0.23 1.62-1.05 3.03-0.82 1.41-2.12 2.41-1.3 0.98-2.88 1.4l-1.7 0.45q-1.58 0.42-3.2 0.2-1.62-0.22-3.03-1.04-1.41-0.82-2.41-2.12-0.98-1.3-1.4-2.88l-4.79-18.11q-0.41-1.58-0.2-3.2 0.22-1.62 1.04-3.03 0.83-1.41 2.13-2.41 1.3-0.98 2.88-1.4l1.7-0.45q1.58-0.42 3.2-0.2 1.62 0.22 3.03 1.04 1.41 0.82 2.4 2.12 0.99 1.3 1.41 2.88z" style="fill:#070A0F"/>
<path class="s1" d="m633.16 150.61q-0.35 1.33-1.18 2.43-0.83 1.09-2.01 1.78-1.19 0.69-2.55 0.88-1.36 0.19-2.69-0.16l-1.35-0.35q-1.33-0.35-2.42-1.18-1.09-0.83-1.79-2.02-0.69-1.19-0.88-2.55-0.18-1.36 0.16-2.69l4.77-18.17q0.35-1.33 1.18-2.43 0.83-1.09 2.02-1.78 1.19-0.69 2.55-0.88 1.36-0.19 2.69 0.16l1.34 0.35q1.33 0.35 2.43 1.18 1.09 0.83 1.78 2.02 0.7 1.19 0.88 2.55 0.19 1.36-0.16 2.69z" style="fill:#F3F6FA"/>
<path class="s1" d="m289.59 146.56q0.35 1.34 0.17 2.72-0.19 1.38-0.89 2.59-0.71 1.2-1.82 2.04-1.11 0.84-2.45 1.2l-1.48 0.38q-1.34 0.36-2.72 0.17-1.38-0.19-2.59-0.89-1.2-0.71-2.04-1.81-0.84-1.12-1.2-2.46l-4.68-17.84q-0.35-1.35-0.16-2.73 0.19-1.38 0.89-2.58 0.7-1.2 1.81-2.05 1.11-0.84 2.46-1.19l1.47-0.39q1.35-0.35 2.73-0.17 1.38 0.2 2.58 0.9 1.2 0.7 2.05 1.81 0.84 1.11 1.19 2.46z" style="fill:#F3F6FA"/>
<path class="s0" d="m658 159.7c0.03-3.29 0.71-6.55 2.02-9.59 1.31-3.04 3.21-5.79 5.6-8.1 2.39-2.31 5.22-4.14 8.33-5.37 3.1-1.24 6.42-1.86 9.77-1.83 3.35 0.03 6.66 0.71 9.75 2 3.08 1.29 5.88 3.16 8.22 5.52 2.35 2.35 4.21 5.13 5.46 8.19 1.26 3.06 1.89 6.33 1.86 9.63-0.03 3.3-0.72 6.56-2.02 9.59-1.31 3.04-3.22 5.79-5.61 8.1-2.38 2.31-5.21 4.14-8.32 5.37-3.1 1.24-6.43 1.86-9.78 1.83-3.34-0.03-6.66-0.71-9.74-2-3.08-1.29-5.88-3.16-8.23-5.51-2.35-2.36-4.2-5.14-5.45-8.2-1.26-3.06-1.89-6.33-1.86-9.63z" style="fill:#070A0F"/>
<path class="s1" d="m659.43 159.67c0.03-3.12 0.69-6.21 1.93-9.08 1.24-2.88 3.04-5.48 5.31-7.67 2.26-2.18 4.93-3.91 7.87-5.07 2.93-1.17 6.07-1.75 9.24-1.72 3.16 0.04 6.29 0.68 9.2 1.91 2.91 1.23 5.55 3.01 7.76 5.24 2.22 2.23 3.96 4.88 5.15 7.77 1.18 2.9 1.77 6 1.73 9.13-0.03 3.12-0.68 6.21-1.93 9.08-1.24 2.88-3.04 5.48-5.3 7.67-2.26 2.18-4.94 3.91-7.87 5.07-2.94 1.17-6.08 1.75-9.24 1.72-3.17-0.03-6.29-0.68-9.2-1.91-2.91-1.22-5.55-3.01-7.77-5.24-2.21-2.23-3.96-4.87-5.14-7.77-1.18-2.9-1.77-6-1.74-9.13z" style="fill:#20252D"/>
<path class="s0" d="m696.9 168.82l-26.82 0.05q-0.27 0-0.5-0.13-0.22-0.13-0.36-0.36-0.13-0.23-0.13-0.5 0-0.26 0.13-0.49l13.37-23.25q0.13-0.23 0.36-0.36 0.23-0.14 0.5-0.14 0.26 0 0.49 0.13 0.23 0.14 0.36 0.37l13.45 23.2q0.13 0.23 0.14 0.49 0 0.27-0.13 0.5-0.14 0.23-0.37 0.36-0.23 0.13-0.49 0.13z" style="fill:#C9D1DC"/>
<path class="s1" d="m694.77 166.88l-22.58 0.04q-0.05 0-0.1-0.02-0.05-0.03-0.07-0.07-0.03-0.05-0.03-0.1 0-0.06 0.03-0.1l11.26-19.58q0.02-0.04 0.07-0.07 0.04-0.03 0.09-0.03 0.06 0 0.1 0.03 0.05 0.03 0.08 0.07l11.32 19.54q0.03 0.05 0.03 0.1 0 0.05-0.03 0.1-0.02 0.04-0.07 0.07-0.05 0.02-0.1 0.02z" style="fill:#20252D"/>
<path class="s0" d="m225.81 155.22q7.4-0.03 14.09 1.9 6.37 1.84 7.93 7.87 0.39 1.53 0.07 6.62-0.63 9.75-1.93 15.49-1.02 4.49-4.99 8.46-4.42 4.43-8.88 7.76-3.07 2.28-6.11 2.29-3.04 0.01-6.12-2.25-4.49-3.3-8.93-7.69-4.01-3.95-5.06-8.43-1.34-5.73-2.04-15.48-0.35-5.07 0.03-6.61 1.51-6.05 7.87-7.93 6.67-1.98 14.07-2z" style="fill:#070A0F"/>
<path class="s1" d="m225.76 156.44q7.75-0.04 14.38 2.09 3.7 1.19 5.59 4.55 1.11 1.98 0.9 6.91-0.34 8.28-1.83 16.19c-0.94 4.98-3.79 7.46-7.71 11.18-2.88 2.72-7.4 7.07-11.09 7.09-3.69 0.02-8.24-4.28-11.15-6.98-3.96-3.67-6.84-6.13-7.83-11.1q-1.57-7.89-2-16.17-0.25-4.92 0.84-6.92 1.85-3.37 5.54-4.6 6.61-2.2 14.36-2.24z" style="fill:#20252D"/>
<path class="s0" d="m221.07 169.81l5.14-5.27q0.06-0.05 0.12-0.08 0.07-0.03 0.15-0.03 0.07 0 0.14 0.03 0.06 0.03 0.12 0.08l5.09 5.33q0.07 0.08 0.09 0.18 0.02 0.11-0.02 0.21-0.04 0.1-0.13 0.16-0.1 0.06-0.21 0.06l-10.24-0.05q-0.11 0-0.2-0.06-0.09-0.07-0.13-0.17-0.04-0.1-0.02-0.2 0.02-0.11 0.1-0.19z" style="fill:#C9D1DC"/>
<path class="s0" d="m653.13 212.56c0.37 3.32 0.08 6.69-0.87 9.9-0.94 3.21-2.52 6.22-4.63 8.83-2.12 2.62-4.74 4.8-7.7 6.42-2.97 1.62-6.23 2.65-9.6 3.03-3.36 0.37-6.77 0.09-10.02-0.83-3.25-0.92-6.29-2.47-8.93-4.55-2.65-2.08-4.85-4.66-6.48-7.59-1.63-2.92-2.66-6.14-3.04-9.46-0.37-3.32-0.07-6.69 0.87-9.9 0.94-3.22 2.52-6.22 4.63-8.83 2.12-2.62 4.74-4.8 7.71-6.42 2.96-1.62 6.22-2.65 9.59-3.03 3.36-0.38 6.77-0.09 10.02 0.83 3.26 0.92 6.29 2.47 8.93 4.55 2.65 2.08 4.85 4.66 6.48 7.59 1.63 2.92 2.67 6.14 3.04 9.46z" style="fill:#070A0F"/>
<path class="s0" d="m765.63 214.53c0.12 3.35-0.43 6.68-1.61 9.82-1.19 3.13-2.99 6.01-5.3 8.46-2.31 2.45-5.09 4.43-8.17 5.82-3.09 1.39-6.42 2.18-9.81 2.3-3.4 0.12-6.78-0.41-9.96-1.57-3.18-1.17-6.09-2.94-8.58-5.21-2.48-2.28-4.49-5.01-5.9-8.05-1.41-3.04-2.2-6.33-2.32-9.67-0.12-3.34 0.42-6.68 1.61-9.81 1.18-3.14 2.98-6.01 5.29-8.46 2.31-2.46 5.09-4.43 8.18-5.83 3.08-1.39 6.42-2.17 9.81-2.3 3.39-0.12 6.77 0.41 9.95 1.58 3.18 1.16 6.1 2.93 8.58 5.21 2.49 2.27 4.49 5.01 5.9 8.05 1.41 3.04 2.2 6.32 2.33 9.66z" style="fill:#070A0F"/>
<path class="s1" d="m651.61 212.29c0.41 3.15 0.19 6.36-0.64 9.43-0.83 3.07-2.27 5.94-4.21 8.46-1.95 2.52-4.38 4.64-7.15 6.23-2.77 1.58-5.82 2.61-8.99 3.02-3.17 0.41-6.38 0.2-9.46-0.63-3.08-0.83-5.97-2.25-8.5-4.19-2.53-1.94-4.65-4.35-6.24-7.11-1.59-2.75-2.62-5.79-3.03-8.95-0.41-3.15-0.19-6.35 0.65-9.42 0.83-3.07 2.26-5.95 4.21-8.47 1.95-2.52 4.38-4.63 7.15-6.22 2.76-1.59 5.82-2.62 8.98-3.03 3.17-0.41 6.39-0.19 9.47 0.63 3.08 0.83 5.97 2.25 8.5 4.19 2.52 1.94 4.64 4.36 6.23 7.11 1.59 2.76 2.62 5.8 3.03 8.95z" style="fill:#20252D"/>
<path class="s1" d="m715.41 215.42c0-3.18 0.64-6.32 1.87-9.25 1.23-2.93 3.04-5.59 5.31-7.83 2.27-2.24 4.96-4.01 7.93-5.22 2.96-1.21 6.14-1.83 9.34-1.83 3.21 0.01 6.38 0.64 9.34 1.86 2.96 1.22 5.65 3 7.91 5.25 2.27 2.25 4.06 4.92 5.28 7.85 1.22 2.93 1.85 6.08 1.84 9.25 0 3.17-0.64 6.31-1.87 9.24-1.23 2.93-3.04 5.59-5.31 7.83-2.27 2.24-4.96 4.02-7.93 5.23-2.96 1.21-6.14 1.83-9.34 1.82-3.21 0-6.38-0.64-9.34-1.85-2.96-1.22-5.65-3.01-7.91-5.26-2.26-2.24-4.06-4.91-5.28-7.84-1.22-2.94-1.85-6.08-1.84-9.25z" style="fill:#20252D"/>
<path class="s0" d="m215.53 214.97c0.02 3.21-2.55 6.46-4.75 8.82q-4.08 4.36-8.4 7.96c-3.06 2.55-6.71 3.29-11.07 3.92q-5.77 0.83-12.78 1.21c-10.1 0.55-14.9-3.32-16.16-13.26q-0.49-3.86-0.52-8.32-0.03-4.46 0.42-8.33c1.14-9.96 5.89-13.88 15.99-13.46q7.02 0.29 12.8 1.06c4.36 0.57 8.03 1.27 11.12 3.78q4.36 3.54 8.49 7.86c2.23 2.33 4.84 5.55 4.86 8.76z" style="fill:#070A0F"/>
<path class="s0" d="m290.16 215.38c-0.05 4.19-0.31 8.76-1.52 12.84-2.36 7.9-8.71 8.97-15.94 8.63q-9.03-0.42-17.86-2.45c-2-0.45-4.54-1.82-6.32-3.36q-5.89-5.09-10.44-10.51-2.23-2.66-2.2-5.68 0.03-3.02 2.31-5.64 4.66-5.33 10.64-10.31c1.81-1.5 4.38-2.82 6.38-3.23q8.88-1.85 17.91-2.11c7.23-0.19 13.56 1 15.77 8.95 1.13 4.1 1.31 8.68 1.27 12.87z" style="fill:#070A0F"/>
<path class="s1" d="m214.31 215.01c0.02 3.85-5.46 9.02-7.87 11.26-2.72 2.53-4.74 4.74-7.14 6q-1.81 0.95-4.56 1.48-9.48 1.82-19.47 1.77c-7.85-0.05-10.56-5.14-11.49-11.99q-0.52-3.76-0.54-8.28-0.02-4.52 0.45-8.28c0.87-6.86 3.54-11.97 11.38-12.09q9.99-0.15 19.48 1.57 2.76 0.5 4.59 1.44c2.4 1.24 4.45 3.42 7.2 5.93 2.42 2.21 7.95 7.33 7.97 11.19z" style="fill:#20252D"/>
<path class="s1" d="m288.83 215.35q-0.04 4.01-0.59 8.46c-0.56 4.42-1.99 8.34-6.06 10.59q-2.13 1.17-7.51 1.12-9.99-0.09-19.39-2.3c-3.95-0.92-6.7-3.79-10.12-7.07-2.85-2.72-8.02-7.32-7.98-11.22 0.03-3.91 5.27-8.42 8.16-11.09 3.48-3.22 6.27-6.05 10.24-6.91q9.44-2.04 19.42-1.97 5.38 0.03 7.5 1.24c4.03 2.32 5.39 6.26 5.88 10.69q0.48 4.45 0.45 8.46z" style="fill:#20252D"/>
<path class="s0" d="m756.12 215.27c0 2.11-0.42 4.2-1.24 6.15-0.81 1.95-2.01 3.72-3.53 5.22-1.51 1.49-3.31 2.68-5.3 3.49-1.98 0.81-4.1 1.23-6.25 1.23-2.15 0.01-4.27-0.41-6.26-1.21-1.98-0.8-3.78-1.98-5.3-3.47-1.52-1.49-2.73-3.26-3.56-5.21-0.82-1.94-1.25-4.03-1.25-6.14-0.01-2.11 0.41-4.2 1.23-6.15 0.82-1.95 2.02-3.72 3.54-5.21 1.51-1.5 3.31-2.68 5.29-3.49 1.98-0.81 4.11-1.23 6.26-1.24 2.14 0 4.27 0.41 6.25 1.22 1.99 0.8 3.79 1.98 5.31 3.47 1.52 1.49 2.73 3.25 3.55 5.2 0.83 1.95 1.25 4.04 1.26 6.14z" style="fill:#C9D1DC"/>
<path class="s1" d="m753.84 215.31c0 1.85-0.36 3.67-1.06 5.38-0.71 1.7-1.74 3.25-3.05 4.55-1.3 1.3-2.85 2.34-4.55 3.04-1.7 0.71-3.53 1.07-5.37 1.07-1.84 0-3.67-0.36-5.37-1.07-1.71-0.7-3.25-1.74-4.56-3.04-1.3-1.3-2.33-2.85-3.04-4.55-0.7-1.71-1.07-3.53-1.07-5.38 0-1.84 0.37-3.66 1.07-5.37 0.71-1.7 1.74-3.25 3.04-4.55 1.31-1.3 2.85-2.34 4.56-3.04 1.7-0.71 3.53-1.07 5.37-1.07 1.84 0 3.67 0.36 5.37 1.07 1.7 0.7 3.25 1.74 4.55 3.04 1.31 1.3 2.34 2.85 3.05 4.55 0.7 1.71 1.06 3.53 1.06 5.37z" style="fill:#20252D"/>
<path class="s0" d="m640.55 227.54q0 0.2-0.08 0.39-0.07 0.19-0.22 0.33-0.14 0.15-0.33 0.23-0.19 0.07-0.4 0.07l-24.4-0.04q-0.21 0-0.4-0.08-0.19-0.08-0.33-0.22-0.15-0.15-0.22-0.34-0.08-0.19-0.08-0.39l0.04-24.41q0-0.2 0.08-0.39 0.08-0.19 0.22-0.33 0.15-0.15 0.34-0.23 0.19-0.08 0.39-0.08l24.41 0.05q0.2 0 0.39 0.08 0.19 0.08 0.34 0.22 0.14 0.15 0.22 0.33 0.08 0.19 0.08 0.4z" style="fill:#C9D1DC"/>
<path class="s1" d="m638.5 225.92q0 0.09-0.04 0.19-0.04 0.09-0.1 0.16-0.07 0.06-0.17 0.1-0.09 0.04-0.18 0.04l-21.42 0.04q-0.1 0-0.19-0.04-0.09-0.04-0.16-0.11-0.07-0.07-0.11-0.16-0.04-0.09-0.04-0.18l-0.04-21.42q0-0.1 0.04-0.19 0.04-0.09 0.11-0.16 0.07-0.07 0.16-0.11 0.09-0.04 0.19-0.04l21.42-0.04q0.1 0 0.19 0.04 0.09 0.04 0.16 0.11 0.07 0.07 0.1 0.16 0.04 0.09 0.04 0.19z" style="fill:#20252D"/>
<path class="s0" d="m274.26 209.11l5.57 5.48q0.04 0.04 0.06 0.09 0.02 0.05 0.02 0.11 0 0.05-0.02 0.11-0.02 0.05-0.06 0.09l-5.61 5.43q-0.06 0.06-0.15 0.08-0.08 0.01-0.16-0.02-0.07-0.03-0.12-0.1-0.05-0.07-0.05-0.16l0.04-10.91q0-0.08 0.05-0.15 0.04-0.07 0.12-0.11 0.08-0.03 0.16-0.01 0.09 0.01 0.15 0.07z" style="fill:#C9D1DC"/>
<path class="s0" d="m178.3 220.47l-5.77-5.41q-0.03-0.03-0.05-0.08-0.02-0.04-0.02-0.09 0-0.05 0.02-0.09 0.02-0.05 0.05-0.08l5.71-5.47q0.05-0.05 0.12-0.07 0.07-0.01 0.14 0.02 0.06 0.03 0.1 0.09 0.04 0.06 0.04 0.13l0.06 10.88q0 0.07-0.04 0.13-0.04 0.06-0.1 0.09-0.07 0.03-0.14 0.01-0.07-0.01-0.12-0.06z" style="fill:#C9D1DC"/>
<path class="s1" d="m324.71 209.91q0.02-0.03 0.06-0.05 0.03-0.02 0.07-0.01 0.04 0 0.07 0.03 0.03 0.03 0.04 0.07 0.8 3.71 1.61 7.62 2.65 12.75 13.47 19.53c7.62 4.78 14.9 5.26 23.84 5.23q32.27-0.09 171.51 0 6.18 0 14.31-0.12c13.89-0.2 26.17-8.43 30.55-21.77 0.92-2.82 1.57-6.93 2.24-10.31q0.01-0.04 0.04-0.08 0.02-0.03 0.05-0.06 0.04-0.02 0.08-0.03 0.04-0.01 0.08-0.01h0.01q0.04 0.01 0.07 0.02 0.03 0.02 0.06 0.05 0.02 0.03 0.03 0.06 0.01 0.03 0.01 0.07-0.16 9.13 2.23 18.14 0.03 0.09 0.04 0.19 0 0.1-0.01 0.19-0.01 0.1-0.03 0.19-0.03 0.09-0.07 0.18c-4.42 8.71-10.78 15.48-20.24 18.39q-5.81 1.79-11.63 2.26-1.18 0.09-11.84 0.09-126.07 0.06-185.06-0.02-4.7-0.01-10.38-1.41-15.51-3.85-22.74-18.18c-0.43-0.87-0.69-1.74-0.45-2.73q1.8-7.45 1.82-17.01 0-0.24 0.16-0.52z" style="fill:#101722"/>
<path class="s0" d="m225.87 224.81c2.26-0.01 4.69 1.27 6.45 2.63q5.14 4.01 10.25 9.25 2.43 2.5 3.19 5.57 2.24 9.14 2.4 19.65c0.11 7.32-2.05 11.12-9.28 13.14q-5.52 1.54-12.83 1.56-7.32 0.03-12.85-1.47c-7.25-1.97-9.43-5.76-9.37-13.08q0.09-10.51 2.27-19.67 0.73-3.07 3.15-5.59 5.07-5.27 10.18-9.31c1.75-1.38 4.17-2.67 6.44-2.68z" style="fill:#070A0F"/>
<path class="s1" d="m225.86 226c2.4-0.01 5.15 2.12 7.05 3.68q4.53 3.73 8.81 8.14 2.06 2.13 2.71 4.88 2.5 10.53 2.34 21.12c-0.11 7.76-5.69 9.72-12.18 10.8q-3.39 0.57-8.6 0.59-5.22 0.01-8.61-0.54c-6.49-1.05-12.08-2.98-12.24-10.74q-0.21-10.58 2.23-21.13 0.64-2.75 2.69-4.89 4.25-4.44 8.76-8.19c1.89-1.58 4.63-3.72 7.04-3.72z" style="fill:#20252D"/>
<path class="s1" d="m307.22 251.98q9.81-8.72 14.49-21.07 0.02-0.04 0.05-0.07 0.04-0.03 0.09-0.03 0.04-0.01 0.08 0.01 0.05 0.02 0.07 0.06 0.95 1.52 1.82 2.95 4.2 6.94 10.83 11.26 0.03 0.02 0.05 0.06 0.01 0.04 0 0.08-0.01 0.04-0.04 0.06-0.03 0.03-0.07 0.03c-9.43 0.36-18.9 2.11-27.26 6.81q-0.03 0.01-0.07 0.01-0.03-0.01-0.05-0.04-0.02-0.03-0.02-0.06 0-0.04 0.03-0.06z" style="fill:#101722"/>
<path class="s1" d="m600.11 251.85q0.02 0.03 0.03 0.06 0 0.04-0.02 0.06-0.02 0.03-0.05 0.04-0.04 0.01-0.07-0.01c-8.25-4.64-17.59-6.38-26.9-6.73q-0.04-0.01-0.07-0.03-0.03-0.03-0.04-0.06-0.01-0.04 0-0.08 0.02-0.04 0.05-0.06 6.55-4.26 10.69-11.11 0.86-1.41 1.8-2.91 0.03-0.04 0.07-0.06 0.04-0.02 0.09-0.01 0.04 0 0.08 0.03 0.03 0.03 0.05 0.07 4.62 12.19 14.29 20.8z" style="fill:#101722"/>
<path class="s0" d="m708.76 268.29c0.41 3.3 0.16 6.65-0.73 9.85-0.88 3.21-2.4 6.21-4.45 8.83-2.05 2.62-4.6 4.82-7.5 6.46-2.91 1.65-6.11 2.7-9.42 3.12-3.31 0.41-6.67 0.17-9.89-0.71-3.22-0.88-6.23-2.39-8.86-4.43-2.63-2.04-4.84-4.57-6.48-7.46-1.65-2.89-2.71-6.08-3.12-9.37-0.41-3.3-0.16-6.65 0.72-9.85 0.89-3.21 2.4-6.21 4.46-8.83 2.05-2.62 4.6-4.82 7.5-6.46 2.9-1.65 6.1-2.7 9.42-3.12 3.31-0.41 6.67-0.17 9.89 0.71 3.21 0.88 6.23 2.39 8.86 4.43 2.63 2.04 4.83 4.57 6.48 7.46 1.65 2.89 2.71 6.08 3.12 9.37z" style="fill:#070A0F"/>
<path class="s1" d="m306.79 408.85c-15.23-0.15-28.21-0.25-41.68 2.12-14.36 2.53-26.38 10.79-36.05 21.57q-0.04 0.05-0.1 0.08-0.05 0.02-0.11 0.02-0.06 0.01-0.12-0.01-0.06-0.03-0.1-0.07-13.05-12.14-20.76-28.19-0.03-0.06-0.04-0.13-0.02-0.06-0.02-0.13 0-0.07 0.01-0.14 0.02-0.07 0.05-0.13 20.84-46.53 49.14-88.89c1.54-2.3 3.17-4.5 4.8-6.89q9.07-13.34 14.69-20.49 4.46-5.66 4.59-5.83 11.28-14.54 14.55-17.86c3.85-3.89 7.83-7.7 12.37-10.54 8.3-5.18 18.82-6.56 28.43-6.92q0.13 0 0.27 0 0.13 0.01 0.27 0.03 0.13 0.01 0.26 0.04 0.14 0.03 0.27 0.07c1.23 0.37 3.39 1.65 4.95 2.1q8.38 2.45 14.91 2.46 30.06 0.03 191.84 0.01 2.96 0 9.53-0.97 5.84-0.86 11.31-3.52 0.09-0.05 0.19-0.09 0.1-0.03 0.21-0.05 0.1-0.03 0.21-0.04 0.1-0.01 0.21-0.01c11.25 0.13 24.06 2.39 32.93 9.49 4.07 3.26 8.8 7.89 12.75 12.45q8.71 10.04 11.77 13.95c4.12 5.25 8.51 10.68 12.16 15.68q9.95 13.63 12.38 17.15c19.42 28.15 36.52 58.31 51.29 89.12q0.04 0.09 0.06 0.17 0.02 0.09 0.02 0.18 0 0.09-0.02 0.18-0.02 0.09-0.06 0.17-7.24 15.45-19.98 27.27-0.07 0.07-0.16 0.1-0.09 0.03-0.18 0.03-0.09-0.01-0.18-0.04-0.09-0.04-0.15-0.11c-7.83-8.29-17.05-15.18-27.76-19.15q-5.2-1.92-13.27-2.99c-13.31-1.76-27.61-1.23-39.12-1.43q-0.08-0.01-0.16-0.04-0.07-0.04-0.12-0.11-0.05-0.06-0.07-0.14-0.02-0.08 0-0.17 0.7-2.98 1.89-6.74c0.83-2.61 0.43-4.75-2.6-4.75q-26.44-0.07-49.73-0.03c-2.98 0.01-3.04 2.24-2.16 4.49q1.33 3.36 2.3 7.34 0.01 0.05 0 0.11-0.01 0.06-0.05 0.1-0.03 0.05-0.09 0.07-0.05 0.03-0.1 0.03h-194.64q-0.1 0-0.2-0.05-0.09-0.04-0.15-0.12-0.06-0.08-0.08-0.18-0.02-0.1 0-0.2 0.77-3.01 1.79-6.1c0.86-2.62 0.93-5.47-2.46-5.47q-41.5-0.02-50.12 0-0.04 0-0.07 0-0.04 0-0.07 0.01-0.04 0-0.07 0.01-0.03 0.01-0.07 0.02c-2.15 0.65-2.62 1.91-1.71 4.08q1.38 3.29 2.4 7.74 0.01 0.05 0 0.1-0.01 0.05-0.05 0.09-0.03 0.05-0.08 0.07-0.04 0.02-0.09 0.02z" style="fill:#101722"/>
<path class="s1" d="m707.44 269c0.32 3.13 0.02 6.29-0.89 9.3-0.91 3.01-2.4 5.82-4.39 8.25-2 2.44-4.45 4.46-7.23 5.95-2.78 1.49-5.82 2.42-8.96 2.74-3.14 0.32-6.31 0.02-9.33-0.88-3.02-0.9-5.83-2.39-8.27-4.38-2.44-1.98-4.47-4.43-5.97-7.2-1.49-2.76-2.42-5.8-2.74-8.92-0.32-3.13-0.01-6.29 0.89-9.3 0.91-3.01 2.4-5.82 4.4-8.25 1.99-2.44 4.45-4.46 7.22-5.95 2.78-1.49 5.83-2.43 8.96-2.75 3.14-0.31 6.31-0.01 9.33 0.89 3.02 0.9 5.83 2.39 8.27 4.37 2.45 1.99 4.47 4.44 5.97 7.2 1.49 2.77 2.43 5.81 2.74 8.93z" style="fill:#20252D"/>
<path class="s0" d="m685.5 271.49q0 0.15 0.07 0.22 5.17 5.13 10.01 10.16 0.15 0.16 0.23 0.35 0.08 0.2 0.08 0.41 0 0.21-0.07 0.41-0.08 0.2-0.22 0.36l-0.04 0.04q-0.14 0.15-0.32 0.23-0.19 0.09-0.39 0.1-0.2 0-0.39-0.07-0.19-0.08-0.33-0.22-5.61-5.56-10.1-10.25-0.07-0.08-0.23-0.08-0.16 0-0.23 0.08-4.47 4.71-10.06 10.28-0.15 0.14-0.33 0.22-0.19 0.07-0.39 0.07-0.21-0.01-0.39-0.09-0.19-0.09-0.33-0.24l-0.04-0.04q-0.14-0.15-0.22-0.35-0.07-0.2-0.07-0.41 0-0.22 0.08-0.41 0.08-0.2 0.23-0.35 4.82-5.05 9.98-10.19 0.07-0.07 0.07-0.23 0-0.15-0.07-0.22-5.17-5.13-10.01-10.16-0.15-0.16-0.23-0.35-0.08-0.2-0.08-0.41-0.01-0.21 0.07-0.41 0.07-0.2 0.22-0.36l0.04-0.04q0.14-0.15 0.32-0.23 0.19-0.09 0.39-0.1 0.2 0 0.39 0.07 0.19 0.08 0.33 0.22 5.61 5.56 10.09 10.26 0.07 0.07 0.24 0.07 0.16 0 0.23-0.08 4.47-4.71 10.06-10.28 0.15-0.14 0.33-0.22 0.19-0.07 0.39-0.07 0.21 0.01 0.39 0.09 0.19 0.09 0.33 0.24l0.04 0.04q0.14 0.16 0.22 0.35 0.07 0.2 0.07 0.41 0 0.22-0.08 0.41-0.09 0.2-0.23 0.35-4.82 5.05-9.98 10.19-0.07 0.07-0.07 0.23z" style="fill:#C9D1DC"/>
<path class="s0" d="m430.4 265.18q0 0.85-0.32 1.63-0.33 0.78-0.92 1.38-0.6 0.6-1.39 0.93-0.78 0.32-1.63 0.32-0.84 0-1.63-0.32-0.78-0.33-1.38-0.93-0.6-0.6-0.92-1.38-0.33-0.78-0.33-1.63 0-0.85 0.33-1.63 0.32-0.78 0.92-1.38 0.6-0.6 1.38-0.92 0.79-0.33 1.63-0.33 0.85 0 1.63 0.33 0.79 0.32 1.39 0.92 0.59 0.6 0.92 1.38 0.32 0.78 0.32 1.63z" style="fill:#05070A"/>
<path class="s0" d="m458.82 264.97q0.02 0.84-0.28 1.62-0.3 0.79-0.89 1.4-0.59 0.61-1.38 0.96-0.79 0.34-1.65 0.37-0.86 0.03-1.67-0.26-0.8-0.3-1.43-0.87-0.63-0.57-0.99-1.33-0.35-0.76-0.38-1.6-0.03-0.84 0.27-1.62 0.31-0.78 0.9-1.39 0.59-0.62 1.37-0.96 0.79-0.35 1.65-0.38 0.87-0.03 1.67 0.27 0.81 0.29 1.44 0.86 0.63 0.57 0.98 1.33 0.36 0.77 0.39 1.6z" style="fill:#05070A"/>
<path class="s0" d="m486.74 265.18q0 0.84-0.32 1.62-0.33 0.78-0.92 1.37-0.6 0.6-1.37 0.92-0.78 0.32-1.62 0.32-0.84 0-1.62-0.32-0.78-0.32-1.37-0.92-0.6-0.59-0.92-1.37-0.32-0.78-0.32-1.62 0-0.84 0.32-1.62 0.32-0.77 0.92-1.37 0.59-0.59 1.37-0.92 0.78-0.32 1.62-0.32 0.84 0 1.62 0.32 0.77 0.33 1.37 0.92 0.59 0.6 0.92 1.37 0.32 0.78 0.32 1.62z" style="fill:#05070A"/>
<path class="s0" d="m444.51 265.19q0 0.84-0.32 1.62-0.33 0.78-0.92 1.38-0.6 0.59-1.38 0.92-0.78 0.32-1.62 0.32-0.85 0-1.63-0.32-0.77-0.33-1.37-0.92-0.6-0.6-0.92-1.38-0.32-0.78-0.32-1.62 0-0.85 0.32-1.63 0.32-0.77 0.92-1.37 0.6-0.6 1.37-0.92 0.78-0.32 1.63-0.32 0.84 0 1.62 0.32 0.78 0.32 1.38 0.92 0.59 0.6 0.92 1.37 0.32 0.78 0.32 1.63z" style="fill:#05070A"/>
<path class="s0" d="m472.92 265.24q-0.01 0.84-0.33 1.63-0.32 0.78-0.92 1.38-0.6 0.6-1.38 0.92-0.79 0.32-1.63 0.33-0.85-0.01-1.63-0.33-0.79-0.32-1.39-0.92-0.59-0.6-0.92-1.38-0.32-0.79-0.32-1.63 0-0.85 0.32-1.63 0.33-0.79 0.92-1.39 0.6-0.59 1.39-0.92 0.78-0.32 1.63-0.32 0.84 0 1.63 0.32 0.78 0.33 1.38 0.92 0.6 0.6 0.92 1.39 0.32 0.78 0.33 1.63z" style="fill:#05070A"/>
<path class="s0" d="m231.7 262.51l-5.11 5.38q-0.03 0.03-0.07 0.05-0.05 0.02-0.09 0.02-0.05 0-0.09-0.02-0.04-0.02-0.08-0.05l-5.18-5.31q-0.05-0.05-0.06-0.11-0.02-0.07 0.01-0.13 0.03-0.06 0.08-0.1 0.06-0.04 0.13-0.04l10.3-0.07q0.07 0 0.12 0.03 0.06 0.04 0.09 0.1 0.02 0.07 0.01 0.13-0.01 0.07-0.06 0.12z" style="fill:#C9D1DC"/>
<path class="s0" d="m388.23 319.72c0.08 7.05-1.24 14.06-3.9 20.61-2.65 6.56-6.59 12.53-11.58 17.58-4.99 5.05-10.94 9.09-17.51 11.87-6.57 2.78-13.63 4.25-20.77 4.34-7.15 0.09-14.24-1.21-20.88-3.83-6.63-2.62-12.68-6.51-17.79-11.44-5.12-4.93-9.2-10.8-12.01-17.29-2.81-6.49-4.31-13.46-4.39-20.52-0.09-7.05 1.23-14.06 3.89-20.61 2.65-6.56 6.59-12.53 11.58-17.58 4.99-5.05 10.94-9.09 17.51-11.87 6.57-2.78 13.63-4.26 20.77-4.34 7.15-0.09 14.24 1.21 20.88 3.83 6.63 2.62 12.68 6.51 17.79 11.44 5.12 4.93 9.2 10.8 12.01 17.29 2.82 6.49 4.31 13.46 4.4 20.52z" style="fill:#070A0F"/>
<path class="s0" d="m628.66 319.57c0.11 7.07-1.19 14.09-3.82 20.66-2.64 6.58-6.57 12.57-11.55 17.65-4.98 5.08-10.93 9.14-17.51 11.95-6.57 2.8-13.64 4.31-20.8 4.42-7.16 0.11-14.27-1.17-20.93-3.77-6.66-2.6-12.73-6.47-17.87-11.39-5.14-4.92-9.25-10.79-12.09-17.27-2.85-6.49-4.37-13.47-4.48-20.54-0.11-7.06 1.19-14.09 3.83-20.66 2.64-6.57 6.56-12.57 11.54-17.65 4.99-5.07 10.94-9.13 17.51-11.94 6.57-2.81 13.64-4.31 20.8-4.43 7.16-0.11 14.27 1.17 20.93 3.77 6.66 2.6 12.73 6.47 17.87 11.39 5.15 4.92 9.26 10.79 12.1 17.28 2.84 6.49 4.36 13.46 4.47 20.53z" style="fill:#070A0F"/>
<path class="s1" d="m520.92 320.43c0-6.9 1.38-13.73 4.05-20.11 2.67-6.38 6.59-12.17 11.54-17.05 4.94-4.88 10.8-8.75 17.26-11.39 6.45-2.64 13.37-4 20.36-4 6.99 0 13.91 1.36 20.36 4 6.46 2.64 12.33 6.51 17.27 11.39 4.94 4.88 8.86 10.67 11.53 17.05 2.68 6.38 4.05 13.21 4.05 20.11 0 6.91-1.37 13.74-4.05 20.12-2.67 6.37-6.59 12.17-11.53 17.05-4.94 4.88-10.81 8.75-17.27 11.39-6.45 2.64-13.37 4-20.36 4-6.99 0-13.91-1.36-20.36-4-6.46-2.64-12.32-6.51-17.26-11.39-4.95-4.88-8.87-10.68-11.54-17.05-2.67-6.38-4.05-13.21-4.05-20.12z" style="fill:#141A22"/>
<path class="s1" d="m386.9 319.66c0.09 6.89-1.18 13.73-3.76 20.13-2.58 6.4-6.41 12.24-11.28 17.18-4.86 4.94-10.66 8.89-17.06 11.62-6.41 2.72-13.3 4.18-20.27 4.28-6.97 0.09-13.9-1.17-20.37-3.71-6.48-2.55-12.39-6.33-17.39-11.14-5-4.8-8.99-10.53-11.75-16.86-2.75-6.33-4.22-13.13-4.32-20.02-0.1-6.89 1.18-13.73 3.76-20.14 2.58-6.4 6.41-12.24 11.27-17.18 4.87-4.94 10.67-8.89 17.07-11.61 6.41-2.73 13.29-4.18 20.27-4.28 6.97-0.1 13.89 1.16 20.37 3.71 6.48 2.55 12.39 6.33 17.39 11.13 5 4.81 8.99 10.54 11.75 16.86 2.75 6.33 4.22 13.14 4.32 20.03z" style="fill:#141A22"/>
<path class="s0" d="m480.06 276.27q0 0.84-0.32 1.61-0.32 0.76-0.91 1.35-0.59 0.59-1.35 0.91-0.77 0.32-1.61 0.32-0.83 0-1.6-0.32-0.77-0.32-1.36-0.91-0.59-0.59-0.91-1.35-0.31-0.77-0.32-1.61 0.01-0.83 0.32-1.6 0.32-0.77 0.91-1.36 0.59-0.59 1.36-0.91 0.77-0.31 1.6-0.32 0.84 0.01 1.61 0.32 0.76 0.32 1.35 0.91 0.59 0.59 0.91 1.36 0.32 0.77 0.32 1.6z" style="fill:#05070A"/>
<path class="s0" d="m437.07 276.33q0 0.82-0.31 1.59-0.32 0.76-0.9 1.34-0.59 0.59-1.35 0.9-0.76 0.32-1.59 0.32-0.83 0-1.59-0.32-0.76-0.31-1.35-0.9-0.58-0.58-0.9-1.34-0.31-0.77-0.31-1.59 0-0.83 0.31-1.59 0.32-0.77 0.9-1.35 0.59-0.58 1.35-0.9 0.76-0.32 1.59-0.32 0.83 0 1.59 0.32 0.76 0.32 1.35 0.9 0.58 0.58 0.9 1.35 0.31 0.76 0.31 1.59z" style="fill:#05070A"/>
<path class="s0" d="m451.5 276.29q0 0.84-0.32 1.61-0.32 0.78-0.91 1.37-0.6 0.59-1.37 0.91-0.77 0.32-1.61 0.32-0.84 0-1.61-0.32-0.78-0.32-1.37-0.91-0.59-0.59-0.91-1.37-0.32-0.77-0.32-1.61 0-0.84 0.32-1.61 0.32-0.77 0.91-1.37 0.59-0.59 1.37-0.91 0.77-0.32 1.61-0.32 0.84 0 1.61 0.32 0.77 0.32 1.37 0.91 0.59 0.6 0.91 1.37 0.32 0.77 0.32 1.61z" style="fill:#05070A"/>
<path class="s0" d="m464.81 273.76q0.5 0.65 0.7 1.45 0.2 0.8 0.08 1.62-0.12 0.82-0.54 1.54-0.43 0.71-1.1 1.22-0.67 0.51-1.47 0.73-0.81 0.21-1.63 0.11-0.82-0.11-1.54-0.52-0.71-0.41-1.21-1.06-0.49-0.66-0.7-1.45-0.2-0.8-0.08-1.62 0.12-0.82 0.55-1.54 0.42-0.72 1.09-1.23 0.67-0.5 1.47-0.72 0.81-0.22 1.63-0.11 0.83 0.1 1.54 0.51 0.71 0.41 1.21 1.07z" style="fill:#05070A"/>
<path class="s0" d="m376.79 317.78c0.34 5.59-0.43 11.2-2.28 16.5-1.85 5.29-4.73 10.18-8.48 14.38-3.76 4.2-8.31 7.62-13.4 10.08-5.09 2.46-10.62 3.91-16.27 4.25-5.66 0.35-11.32-0.41-16.67-2.23-5.36-1.82-10.29-4.67-14.53-8.38-4.24-3.71-7.7-8.21-10.18-13.24-2.47-5.03-3.93-10.5-4.27-16.09-0.34-5.59 0.43-11.2 2.28-16.5 1.85-5.29 4.73-10.18 8.49-14.38 3.75-4.2 8.3-7.62 13.39-10.08 5.1-2.46 10.63-3.9 16.28-4.25 5.65-0.35 11.31 0.41 16.67 2.23 5.35 1.82 10.28 4.67 14.52 8.38 4.24 3.71 7.7 8.21 10.18 13.24 2.48 5.03 3.93 10.5 4.27 16.09z" style="fill:#5D6876"/>
<path class="s0" d="m617.32 320.02c0.06 5.61-1 11.18-3.12 16.38-2.12 5.2-5.26 9.95-9.23 13.95-3.97 4.01-8.71 7.21-13.93 9.41-5.23 2.2-10.84 3.36-16.52 3.42-5.67 0.06-11.31-0.98-16.58-3.08-5.27-2.09-10.07-5.18-14.12-9.11-4.06-3.92-7.29-8.59-9.52-13.75-2.23-5.16-3.41-10.7-3.46-16.31-0.06-5.61 1-11.18 3.12-16.38 2.11-5.2 5.25-9.95 9.22-13.95 3.98-4.01 8.71-7.21 13.94-9.41 5.22-2.2 10.83-3.36 16.51-3.42 5.68-0.06 11.31 0.98 16.58 3.08 5.27 2.09 10.07 5.18 14.13 9.11 4.06 3.92 7.29 8.59 9.52 13.75 2.22 5.16 3.4 10.7 3.46 16.31z" style="fill:#5D6876"/>
<path class="s1" d="m331.33 279.07c22.88-1.33 42.77 16.03 44.1 38.89 1.34 22.85-16.4 42.41-39.28 43.75-22.88 1.34-42.77-16.03-44.11-38.88-1.33-22.86 16.41-42.42 39.29-43.76z" style="fill:#252C35"/>
<path class="s1" d="m615.83 318.02c1.34 22.89-16.43 42.49-39.35 43.83-22.92 1.33-42.85-16.06-44.18-38.96-1.34-22.89 16.43-42.49 39.35-43.82 22.92-1.34 42.84 16.05 44.18 38.95z" style="fill:#252C35"/>
<path class="s0" d="m303.41 319.39c0.14-3.93 1.06-7.79 2.71-11.36 1.65-3.58 3.99-6.8 6.9-9.47 2.91-2.68 6.33-4.77 10.06-6.14 3.72-1.38 7.69-2.01 11.67-1.87 3.98 0.14 7.89 1.05 11.51 2.68 3.62 1.63 6.88 3.95 9.6 6.82 2.72 2.88 4.83 6.25 6.23 9.93 1.39 3.68 2.04 7.6 1.9 11.52-0.13 3.93-1.05 7.79-2.7 11.36-1.65 3.58-4 6.8-6.91 9.47-2.91 2.68-6.32 4.77-10.05 6.14-3.73 1.38-7.69 2.01-11.67 1.87-3.98-0.14-7.89-1.05-11.51-2.68-3.63-1.63-6.89-3.95-9.6-6.82-2.72-2.88-4.84-6.25-6.23-9.93-1.4-3.68-2.04-7.6-1.91-11.52z" style="fill:#080B10"/>
<path class="s0" d="m543.76 319.64c0.11-3.93 1-7.8 2.63-11.39 1.62-3.59 3.95-6.83 6.84-9.53 2.89-2.7 6.3-4.82 10.02-6.22 3.71-1.4 7.68-2.06 11.66-1.95 3.98 0.11 7.9 0.99 11.53 2.6 3.64 1.61 6.92 3.91 9.65 6.76 2.74 2.86 4.88 6.23 6.3 9.9 1.43 3.68 2.1 7.59 1.99 11.52-0.11 3.94-1 7.81-2.63 11.4-1.62 3.59-3.95 6.83-6.84 9.53-2.89 2.7-6.29 4.81-10.01 6.21-3.72 1.4-7.68 2.07-11.66 1.96-3.98-0.11-7.9-1-11.54-2.61-3.64-1.6-6.91-3.9-9.65-6.76-2.74-2.86-4.88-6.22-6.3-9.9-1.42-3.67-2.1-7.59-1.99-11.52z" style="fill:#080B10"/>
<path class="s1" d="m304.97 317.31c0.41-3.75 1.55-7.39 3.37-10.7 1.82-3.31 4.28-6.23 7.23-8.59 2.96-2.37 6.35-4.13 9.99-5.19 3.64-1.05 7.45-1.39 11.22-0.98 3.78 0.41 7.43 1.56 10.76 3.37 3.32 1.82 6.26 4.26 8.64 7.21 2.38 2.94 4.15 6.32 5.21 9.95 1.07 3.62 1.41 7.42 1 11.17-0.41 3.76-1.55 7.39-3.37 10.7-1.82 3.31-4.28 6.24-7.23 8.6-2.96 2.36-6.35 4.13-9.99 5.18-3.64 1.06-7.45 1.4-11.23 0.99-3.77-0.41-7.42-1.56-10.75-3.37-3.32-1.82-6.26-4.27-8.64-7.21-2.38-2.95-4.15-6.33-5.22-9.95-1.06-3.62-1.4-7.42-0.99-11.18z" style="fill:#343C47"/>
<path class="s1" d="m545.2 319.57c0.12-3.77 0.98-7.49 2.54-10.94 1.56-3.44 3.79-6.54 6.56-9.13 2.76-2.59 6.02-4.61 9.56-5.94 3.55-1.34 7.33-1.96 11.13-1.84 3.79 0.11 7.52 0.98 10.98 2.53 3.46 1.56 6.58 3.78 9.18 6.53 2.6 2.76 4.62 6 5.97 9.53 1.34 3.54 1.97 7.3 1.85 11.08-0.12 3.78-0.99 7.49-2.55 10.94-1.56 3.44-3.78 6.55-6.55 9.13-2.77 2.59-6.02 4.61-9.57 5.94-3.55 1.34-7.33 1.97-11.12 1.85-3.79-0.12-7.53-0.98-10.99-2.54-3.45-1.56-6.57-3.77-9.17-6.53-2.6-2.76-4.63-5.99-5.97-9.53-1.34-3.53-1.97-7.3-1.85-11.08z" style="fill:#343C47"/>
<path class="s0" d="m455.11 334.9q0 0.06-0.02 0.12-0.03 0.05-0.08 0.08-0.05 0.04-0.11 0.05-0.06 0.01-0.11-0.01l-7.13-2.25q-0.09-0.03-0.16-0.09-0.08-0.05-0.13-0.12-0.06-0.08-0.09-0.17-0.03-0.08-0.03-0.18v-34.39q0-0.12 0.05-0.22 0.05-0.1 0.13-0.18 0.08-0.08 0.19-0.11 0.11-0.04 0.22-0.02 1.04 0.11 2.33 0.46 2.33 0.62 9.77 2.99 6.11 1.94 6.91 8.45c0.56 4.59-0.07 10.84-6.14 10.61-2.25-0.09-3.14-1.22-2.95-3.59q0.38-4.61 0.07-11.13-0.01-0.3-0.12-0.58-0.11-0.28-0.3-0.51-0.19-0.24-0.44-0.39-0.26-0.16-0.55-0.23l-0.15-0.05q-0.22-0.07-0.45-0.03-0.23 0.04-0.41 0.18-0.19 0.14-0.29 0.34-0.1 0.21-0.1 0.44z" style="fill:#5F6B7A"/>
<path class="s0" d="m446.08 330.76q-6.7 1.45-13.19-0.71c-2.12-0.71-4.22-2.37-2.36-4.62q0.05-0.05 0.1-0.1 0.05-0.05 0.1-0.1 0.05-0.04 0.11-0.09 0.06-0.04 0.12-0.08 1.25-0.78 3.02-1.38 5.95-2 11.88-4 0.03-0.01 0.06-0.01 0.02 0.01 0.05 0.02 0.02 0.02 0.03 0.04 0.02 0.03 0.02 0.05v4.27q0 0.03-0.01 0.06-0.01 0.03-0.03 0.05-0.02 0.03-0.04 0.05-0.03 0.02-0.06 0.03l-8.66 3.01q-0.07 0.03-0.14 0.07-0.06 0.05-0.12 0.1-0.05 0.06-0.09 0.13-0.04 0.07-0.06 0.15-0.18 0.69 0.63 0.9 1.44 0.37 3.13 0.03 3.18-0.64 5.45-1.71 0.02-0.01 0.05-0.01 0.03 0 0.05 0.02 0.02 0.01 0.04 0.04 0.01 0.02 0.01 0.05v3.63q0 0.02-0.01 0.04 0 0.02-0.01 0.03-0.02 0.02-0.03 0.03-0.02 0.01-0.04 0.01z" style="fill:#5F6B7A"/>
<path class="s0" d="m457.15 330.04q6.29-1.99 10.78-3.79 0.8-0.32 1.21-0.91 0.06-0.09 0.07-0.19 0.02-0.11-0.02-0.21-0.03-0.1-0.1-0.17-0.08-0.08-0.18-0.11c-3.19-1.08-7.78 1.12-11.18 2.62q-0.14 0.06-0.3 0.05-0.15-0.01-0.28-0.1-0.13-0.08-0.21-0.22-0.07-0.14-0.07-0.29v-3.01q0-0.2 0.06-0.38 0.06-0.19 0.17-0.34 0.12-0.16 0.28-0.27 0.15-0.11 0.34-0.17 8.53-2.61 16.55 0.58 1.41 0.56 2.13 1.67 0.16 0.26 0.25 0.55 0.08 0.3 0.08 0.6-0.01 0.31-0.11 0.6-0.09 0.29-0.27 0.54-0.68 0.95-2.08 1.51-8.89 3.56-16.67 6.07-0.13 0.04-0.27 0.02-0.14-0.03-0.26-0.11-0.11-0.08-0.18-0.21-0.06-0.13-0.06-0.27v-3.6q0-0.08 0.02-0.15 0.02-0.07 0.07-0.13 0.04-0.06 0.1-0.11 0.06-0.04 0.13-0.07z" style="fill:#5F6B7A"/>
<path class="s0" d="m472.86 364.97q-0.01 0.91-0.36 1.76-0.35 0.85-1 1.5-0.65 0.65-1.5 1-0.85 0.35-1.77 0.35l-28.33-0.05q-0.92-0.01-1.77-0.36-0.85-0.35-1.5-1-0.64-0.65-0.99-1.5-0.35-0.85-0.35-1.77v-0.26q0-0.92 0.35-1.77 0.36-0.84 1.01-1.49 0.65-0.65 1.5-1 0.85-0.35 1.76-0.35l28.34 0.05q0.92 0 1.76 0.35 0.85 0.36 1.5 1.01 0.65 0.65 1 1.5 0.35 0.85 0.35 1.76z" style="fill:#05070A"/>
<path class="s1" d="m471.25 365.04q0 0.61-0.23 1.18-0.24 0.57-0.67 1.01-0.44 0.43-1 0.67-0.57 0.23-1.18 0.23l-28.17 0.05q-0.61 0-1.18-0.23-0.57-0.24-1.01-0.67-0.43-0.43-0.67-1-0.23-0.57-0.23-1.18v-0.12q0-0.61 0.23-1.18 0.23-0.57 0.67-1 0.43-0.44 1-0.67 0.56-0.24 1.18-0.24l28.17-0.05q0.61 0 1.18 0.23 0.57 0.24 1 0.67 0.44 0.43 0.67 1 0.24 0.57 0.24 1.18z" style="fill:#2E3640"/>
<path class="s0" d="m470.23 398.89q0 0.93-0.35 1.79-0.35 0.85-1.01 1.51-0.65 0.65-1.51 1.01-0.85 0.36-1.78 0.36l-23.05 0.04q-0.92 0-1.78-0.35-0.86-0.36-1.52-1.01-0.65-0.65-1.01-1.51-0.35-0.86-0.36-1.78v-0.3q0-0.93 0.36-1.78 0.35-0.86 1-1.52 0.66-0.65 1.51-1.01 0.86-0.35 1.78-0.36l23.05-0.04q0.93 0 1.79 0.36 0.85 0.35 1.51 1 0.66 0.66 1.01 1.51 0.36 0.86 0.36 1.78z" style="fill:#05070A"/>
<path class="s1" d="m468.93 398.85q0 0.7-0.27 1.36-0.26 0.65-0.76 1.15-0.5 0.5-1.14 0.77-0.65 0.27-1.36 0.27l-22.66 0.08q-0.7 0-1.35-0.26-0.65-0.27-1.15-0.77-0.5-0.49-0.77-1.14-0.27-0.65-0.28-1.36v-0.17q0-0.71 0.27-1.36 0.26-0.65 0.76-1.15 0.5-0.5 1.14-0.77 0.65-0.27 1.36-0.28l22.66-0.08q0.7 0 1.35 0.27 0.65 0.27 1.15 0.76 0.5 0.5 0.77 1.15 0.27 0.65 0.28 1.35z" style="fill:#2E3640"/>
<path class="s0" d="m459.86 398.96q0 0.26-0.1 0.5-0.11 0.24-0.29 0.43-0.19 0.18-0.43 0.28-0.25 0.1-0.51 0.1l-9.26-0.07q-0.26 0-0.5-0.1-0.24-0.1-0.43-0.29-0.18-0.19-0.28-0.43-0.1-0.24-0.1-0.51v-0.21q0-0.26 0.11-0.51 0.1-0.24 0.29-0.42 0.18-0.19 0.43-0.29 0.24-0.09 0.5-0.09l9.26 0.06q0.26 0 0.51 0.11 0.24 0.1 0.42 0.28 0.19 0.19 0.28 0.44 0.1 0.24 0.1 0.5z" style="fill:#5F6B7A"/>
<path class="s1" d="m305.46 398.92q0.08-0.22 0.21-0.41 0.14-0.19 0.33-0.32 0.19-0.14 0.42-0.21 0.22-0.08 0.46-0.08 47.02-0.03 48.36-0.01 1.64 0.03 2.36 0.24 0.26 0.08 0.46 0.24 0.21 0.18 0.34 0.41 0.12 0.24 0.14 0.51 0.03 0.26-0.05 0.52-2.26 7.01-3.53 13.84c-0.71 3.84-13.01 4.48-16.09 4.58-8.09 0.28-16.74 0.36-25.1-1.47-3.02-0.66-4.07-2.02-4.59-5.28q-0.81-5.13-3.6-11.84-0.2-0.46-0.12-0.72z" style="fill:#070A0F"/>
<path class="s1" d="m551.08 398.88q0.07-0.22 0.21-0.41 0.14-0.19 0.33-0.32 0.19-0.14 0.41-0.21 0.23-0.07 0.47-0.08 46.95 0 48.29 0.02 1.64 0.03 2.35 0.24 0.26 0.07 0.47 0.24 0.2 0.17 0.33 0.41 0.12 0.24 0.15 0.5 0.02 0.27-0.06 0.52-2.26 7.01-3.53 13.83c-0.71 3.83-12.99 4.46-16.07 4.56-8.08 0.27-16.72 0.35-25.07-1.48-3-0.66-4.06-2.02-4.58-5.28q-0.8-5.12-3.59-11.82-0.19-0.46-0.11-0.72z" style="fill:#070A0F"/>
<path class="s1" d="m207.09 406.21q0.94 1.63 3.43 5.95 6.31 10.98 17.13 21.21 0.05 0.05 0.08 0.11 0.02 0.06 0.03 0.12 0 0.07-0.01 0.13-0.02 0.06-0.06 0.12-10.17 12.96-19.91 28.16-9.33 14.57-16.22 28.98-7.35 15.38-12.87 30.63-7.18 19.87-12.28 39.88-0.03 0.13-0.1 0.24-0.07 0.1-0.16 0.19-0.1 0.08-0.22 0.14-0.12 0.05-0.24 0.06l-6.5 0.81q-0.07 0.01-0.15-0.01-0.07-0.03-0.12-0.08-0.05-0.05-0.08-0.12-0.02-0.07-0.01-0.15 0.47-3.66 0.52-3.91 6.48-35.72 16.95-70.39 12.31-40.73 30.45-82.05 0.03-0.05 0.07-0.08 0.04-0.03 0.1-0.03 0.05-0.01 0.09 0.02 0.05 0.02 0.08 0.07z" style="fill:#101722"/>
<path class="s1" d="m705.11 406.4q19.6 41.98 33.81 85.55 11.34 34.78 18.14 70.55 0.01 0.06 0 0.12-0.02 0.05-0.06 0.09-0.04 0.05-0.09 0.06-0.06 0.02-0.11 0.01l-7.08-1.04q-0.08-0.01-0.14-0.04-0.07-0.03-0.13-0.08-0.05-0.05-0.09-0.11-0.04-0.07-0.05-0.14-6.15-23.09-15.46-46.32c-7.13-17.76-15.63-35.24-26.4-51.12q-11.09-16.36-22.36-30.16-0.05-0.06-0.07-0.13-0.02-0.07-0.02-0.14 0-0.07 0.03-0.14 0.03-0.06 0.09-0.11 10.62-10.09 17.51-22.25 1.5-2.64 2.26-4.59 0.01-0.03 0.04-0.06 0.03-0.02 0.07-0.02 0.04 0 0.07 0.02 0.03 0.02 0.04 0.05z" style="fill:#101722"/>
<path class="s1" d="m261.12 413.3q-2.71 1.92-3.48 2.53c-4.27 3.39-7.47 8.55-9.96 13.54-3.14 6.3-6.28 13.84-8.71 20.48q-5.05 13.88-11.14 29.76-6.94 18.11-16.38 38.95c-8.33 18.41-22.84 37.61-43.35 42.87q-0.06 0.02-0.12 0-0.06-0.02-0.1-0.06-0.04-0.04-0.06-0.1-0.02-0.06 0-0.12c7.7-29.4 18.59-59.4 32.71-84.48q9.37-16.64 24.59-37.28c8.96-12.15 21.36-21.98 35.95-26.2q0.02 0 0.04 0.01 0.02 0.01 0.03 0.03 0.01 0.02 0 0.04 0 0.02-0.02 0.03z" style="fill:#DDE4EC"/>
<path class="s1" d="m651.71 413.28c8.91 2.42 17.4 7.61 24.3 13.68 4 3.51 8.5 8.06 12.16 12.78q12.39 15.95 20.32 28.35 10.72 16.75 19.04 35.56 12.35 27.92 20.26 57.13 0.01 0.06 0 0.12-0.02 0.07-0.07 0.11-0.04 0.05-0.11 0.07-0.06 0.01-0.13 0c-12.62-3.5-22.65-11.69-30.68-22.01q-8.83-11.36-15.44-25.61-2.96-6.39-11.44-24.7-4.71-10.18-14.86-36.31c-3.62-9.3-6.9-17.1-11.57-25.48q-4.57-8.24-11.85-13.54-0.03-0.02-0.04-0.05 0-0.03 0.01-0.06 0.01-0.02 0.04-0.04 0.03-0.01 0.06 0z" style="fill:#DDE4EC"/>
</g>
</svg>